# Blender 4.1.1
# www.blender.org
mtllib untitled.mtl
o Icosphere
v 0.000000 -1.660000 0.000000
v 0.788724 -0.742377 0.609835
v -0.301260 -0.742377 0.986742
v -1.084886 -0.774279 0.016631
v -0.336829 -0.778064 -1.059987
v 0.788724 -0.742377 -0.609835
v 0.311101 0.776664 1.056297
v -0.524138 -0.063519 0.666283
v 1.047756 0.778575 -0.000047
v 0.084231 1.403260 0.276691
v 0.273197 1.402860 0.000000
v -0.066939 1.370193 -0.335498
v -0.278179 1.490466 -0.164920
v -0.129640 1.492583 0.208084
v -0.285599 1.495609 -0.074896
v -0.412903 1.347267 0.281908
v 0.567070 -0.067248 -0.781218
v 0.186610 0.531511 -1.149873
v -0.287046 0.699771 -0.702270
v 0.158349 1.177676 -0.518655
v 0.573470 0.318950 -0.766499
v 0.294290 1.014330 -0.573736
v 0.732392 0.773216 -0.441018
v 0.560780 0.697631 -0.793727
v -0.769980 0.246429 -0.372824
v -0.959063 0.107408 -0.109422
v -0.779866 0.354865 0.090538
v -0.512458 1.082631 -0.132325
v -0.665868 0.604012 -0.372728
vn 0.2418 -0.6726 0.6993
vn 0.7584 -0.6518 -0.0000
vn -0.5539 -0.6873 0.4700
vn -0.5827 -0.7061 -0.4024
vn 0.2878 -0.6892 -0.6649
vn 0.9858 -0.1679 -0.0000
vn 0.3219 -0.1724 0.9309
vn -0.7779 0.0406 0.6270
vn -0.8372 0.1927 0.5119
vn -0.8206 0.0356 -0.5703
vn 0.8169 0.0894 0.5698
vn -0.5671 0.1919 0.8010
vn -0.9071 0.3045 0.2906
vn 0.4168 -0.1807 -0.8909
vn 0.5766 0.7117 0.4012
vn -0.5324 0.4913 -0.6894
vn 0.2289 0.9670 -0.1116
vn -0.3967 0.8892 0.2281
vn -0.4826 0.4150 0.7713
vn 0.5330 0.7247 -0.4367
vn -0.2114 0.6782 -0.7038
vn 0.5319 0.7371 -0.4168
vn 0.8087 0.0874 -0.5818
vn 0.7080 0.0152 -0.7060
vn 0.3021 0.7021 -0.6448
vn 0.8993 -0.0013 -0.4373
vn 0.6957 -0.0283 -0.7177
vn -0.9153 0.3926 -0.0899
vn -0.6545 0.1986 -0.7295
vt 0.181819 0.000000
vt 0.272728 0.157461
vt 0.090910 0.157461
vt 0.363637 0.000000
vt 0.454546 0.157461
vt 0.909091 0.000000
vt 1.000000 0.157461
vt 0.818182 0.157461
vt 0.727273 0.000000
vt 0.636364 0.157461
vt 0.545455 0.000000
vt 0.363637 0.314921
vt 0.181819 0.314921
vt 0.936353 0.229455
vt 0.848741 0.265268
vt 0.811900 0.240383
vt 0.769797 0.253538
vt 0.042520 0.239769
vt 0.804606 0.366746
vt 0.831034 0.400101
vt 0.799190 0.428257
vt 0.792707 0.428257
vt 0.561250 0.287563
vt 0.495883 0.229059
vt 0.298203 0.428258
vt 0.247253 0.428257
vt 0.588580 0.389617
vt 0.679377 0.297977
vt 0.759807 0.287800
vt 0.720804 0.371444
vt 0.661839 0.428257
vt 0.610889 0.428257
vt 0.116385 0.428257
vt 0.480021 0.428257
vt 0.708819 0.428257
vt 0.495441 0.428257
vt 0.086414 0.433818
vt 0.058599 0.410342
vt 0.438517 0.314921
vt 0.496297 0.361587
vt 0.502330 0.389617
vt 0.429071 0.428258
vt 0.550182 0.361587
vt 0.515676 0.306184
vt 0.491573 0.267484
vt 0.769797 0.253538
s 0
f 1/1/1 2/2/1 3/3/1
f 2/2/2 1/4/2 6/5/2
f 1/6/3 3/7/3 4/8/3
f 1/9/4 4/8/4 5/10/4
f 1/11/5 5/10/5 6/5/5
f 2/2/6 6/5/6 9/12/6
f 3/3/7 2/2/7 7/13/7
f 4/8/8 3/7/8 8/14/8
f 4/8/9 8/14/9 27/15/9 26/16/9
f 5/10/10 4/8/10 26/16/10 25/17/10
f 2/2/11 9/12/11 7/13/11
f 3/3/12 7/13/12 8/18/12
f 28/19/13 27/15/13 8/14/13 16/20/13 15/21/13 13/22/13
f 6/5/14 5/10/14 18/23/14 17/24/14
f 7/13/15 9/12/15 11/25/15 10/26/15
f 20/27/16 19/28/16 29/29/16 28/30/16 13/31/16 12/32/16
f 10/33/17 11/25/17 12/34/17 13/31/17 15/35/17 14/36/17
f 14/37/18 15/35/18 16/20/18
f 8/18/19 7/13/19 10/33/19 14/37/19 16/38/19
f 9/12/20 23/39/20 22/40/20 20/41/20 12/34/20 11/42/20
f 18/23/21 19/28/21 20/27/21 22/43/21
f 24/44/22 22/43/22 23/39/22
f 6/5/23 17/24/23 21/45/23 23/39/23 9/12/23
f 17/24/24 18/23/24 21/45/24
f 18/23/25 22/43/25 24/44/25
f 21/45/26 24/44/26 23/39/26
f 21/45/27 18/23/27 24/44/27
f 25/46/28 26/16/28 27/15/28 28/19/28 29/29/28
f 5/10/29 25/46/29 29/29/29 19/28/29 18/23/29
